# Object Export From Tinkercad Server 2015

mtllib obj.mtl

o obj_0
v 14 		17 		0
v 14 		48 		0
v 14 		17 		3.5
v 14 		48 		3.5
v -10 		48 		0
v -10 		17 		0
v -10 		48 		3.5
v -10 		17 		3.5
# 8 vertices

g group_0_15277357

usemtl color_15277357
s 0

f 3 	1 	2
f 4 	3 	2
f 7 	5 	6
f 8 	7 	6
f 6 	5 	2
f 1 	6 	2
f 7 	8 	3
f 4 	7 	3
f 8 	6 	1
f 3 	8 	1
f 4 	2 	5
f 7 	4 	5
# 12 faces

 #end of obj_0

o obj_1
v -9 		17 		19
v -9 		48 		19
v -9 		17 		0
v -9 		48 		0
v -12.5 		48 		19
v -12.5 		17 		19
v -12.5 		48 		0
v -12.5 		17 		0
# 8 vertices

g group_1_15277357

usemtl color_15277357
s 0

f 9 	11 	10
f 11 	12 	10
f 13 	15 	14
f 15 	16 	14
f 13 	14 	10
f 14 	9 	10
f 16 	15 	11
f 15 	12 	11
f 14 	16 	9
f 16 	11 	9
f 10 	12 	13
f 12 	15 	13
# 12 faces

 #end of obj_1

o obj_2
v 16.5 		17 		19
v 16.5 		47.5 		19
v 16.5 		17 		0
v 16.5 		47.5 		0
v 13 		47.5 		19
v 13 		17 		19
v 13 		47.5 		0
v 13 		17 		0
# 8 vertices

g group_2_15277357

usemtl color_15277357
s 0

f 17 	19 	18
f 19 	20 	18
f 21 	23 	22
f 23 	24 	22
f 21 	22 	18
f 22 	17 	18
f 24 	23 	19
f 23 	20 	19
f 22 	24 	17
f 24 	19 	17
f 18 	20 	21
f 20 	23 	21
# 12 faces

 #end of obj_2

o obj_3
v 18 		14 		19
v 18 		17 		19
v 18 		14 		0
v 18 		17 		0
v -14 		17 		19
v -14 		14 		19
v -14 		17 		0
v -14 		14 		0
# 8 vertices

g group_3_15277357

usemtl color_15277357
s 0

f 25 	27 	26
f 27 	28 	26
f 29 	31 	30
f 31 	32 	30
f 29 	30 	26
f 30 	25 	26
f 32 	31 	27
f 31 	28 	27
f 30 	32 	25
f 32 	27 	25
f 26 	28 	29
f 28 	31 	29
# 12 faces

 #end of obj_3

o obj_4
v 18 		-65.5 		0
v 18 		14 		0
v 18 		-65.5 		3.5
v 18 		14 		3.5
v -14 		14 		0
v -14 		-65.5 		0
v -14 		14 		3.5
v -14 		-65.5 		3.5
# 8 vertices

g group_4_15277357

usemtl color_15277357
s 0

f 35 	33 	34
f 36 	35 	34
f 39 	37 	38
f 40 	39 	38
f 38 	37 	34
f 33 	38 	34
f 39 	40 	35
f 36 	39 	35
f 40 	38 	33
f 35 	40 	33
f 36 	34 	37
f 39 	36 	37
# 12 faces

 #end of obj_4

o obj_5
v -18 		-65.5 		19
v -18 		17 		19
v -18 		-65.5 		0
v -18 		17 		0
v -14 		17 		19
v -14 		-65.5 		19
v -14 		17 		0
v -14 		-65.5 		0
# 8 vertices

g group_5_15277357

usemtl color_15277357
s 0

f 43 	41 	42
f 44 	43 	42
f 47 	45 	46
f 48 	47 	46
f 46 	45 	42
f 41 	46 	42
f 47 	48 	43
f 44 	47 	43
f 48 	46 	41
f 43 	48 	41
f 44 	42 	45
f 47 	44 	45
# 12 faces

 #end of obj_5

o obj_6
v 18 		-65.5 		19
v 18 		17 		19
v 18 		-65.5 		0
v 18 		17 		0
v 22 		17 		19
v 22 		-65.5 		19
v 22 		17 		0
v 22 		-65.5 		0
# 8 vertices

g group_6_15277357

usemtl color_15277357
s 0

f 51 	49 	50
f 52 	51 	50
f 55 	53 	54
f 56 	55 	54
f 54 	53 	50
f 49 	54 	50
f 55 	56 	51
f 52 	55 	51
f 56 	54 	49
f 51 	56 	49
f 52 	50 	53
f 55 	52 	53
# 12 faces

 #end of obj_6

o obj_7
v 16 		50 		19
v 16 		47.5 		19
v 16 		50 		0
v 16 		47.5 		0
v 7.5 		47.5 		19
v 7.5 		50 		19
v 7.5 		47.5 		0
v 7.5 		50 		0
# 8 vertices

g group_7_15277357

usemtl color_15277357
s 0

f 59 	57 	58
f 60 	59 	58
f 63 	61 	62
f 64 	63 	62
f 62 	61 	58
f 57 	62 	58
f 63 	64 	59
f 60 	63 	59
f 64 	62 	57
f 59 	64 	57
f 60 	58 	61
f 63 	60 	61
# 12 faces

 #end of obj_7

o obj_8
v -4 		50.5 		19
v -4 		48 		19
v -4 		50.5 		0
v -4 		48 		0
v -12.5 		48 		19
v -12.5 		50.5 		19
v -12.5 		48 		0
v -12.5 		50.5 		0
# 8 vertices

g group_8_15277357

usemtl color_15277357
s 0

f 67 	65 	66
f 68 	67 	66
f 71 	69 	70
f 72 	71 	70
f 70 	69 	66
f 65 	70 	66
f 71 	72 	67
f 68 	71 	67
f 72 	70 	65
f 67 	72 	65
f 68 	66 	69
f 71 	68 	69
# 12 faces

 #end of obj_8

o obj_9
v 18 		5.5 		15.5
v 18 		14 		15.5
v 18 		5.5 		19
v 18 		14 		19
v 10 		14 		15.5
v 10 		5.5 		15.5
v 10 		14 		19
v 10 		5.5 		19
# 8 vertices

g group_9_15277357

usemtl color_15277357
s 0

f 75 	73 	74
f 76 	75 	74
f 79 	77 	78
f 80 	79 	78
f 78 	77 	74
f 73 	78 	74
f 79 	80 	75
f 76 	79 	75
f 80 	78 	73
f 75 	80 	73
f 76 	74 	77
f 79 	76 	77
# 12 faces

 #end of obj_9

o obj_10
v -6 		5.5 		15.5
v -6 		14 		15.5
v -6 		5.5 		19
v -6 		14 		19
v -14 		14 		15.5
v -14 		5.5 		15.5
v -14 		14 		19
v -14 		5.5 		19
# 8 vertices

g group_10_15277357

usemtl color_15277357
s 0

f 83 	81 	82
f 84 	83 	82
f 87 	85 	86
f 88 	87 	86
f 86 	85 	82
f 81 	86 	82
f 87 	88 	83
f 84 	87 	83
f 88 	86 	81
f 83 	88 	81
f 84 	82 	85
f 87 	84 	85
# 12 faces

 #end of obj_10

o obj_11
v -35 		-13.5 		3.5
v -35 		-13.5 		0
v -35 		2 		0
v -35 		2 		3.5
v -37 		2 		8.5
v -69 		2 		8.5
v -69 		-13.5 		8.5
v -37 		-13.5 		8.5
v -69 		-13.5 		3.5
v -37 		-13.5 		3.5
v -37 		2 		3.5
v -69 		2 		3.5
v -71 		-13.5 		3.5
v -71 		2 		3.5
v -71 		2 		0
v -71 		-13.5 		0
# 16 vertices

g group_11_15277357

usemtl color_15277357
s 0

f 89 	90 	91
f 89 	91 	92
f 93 	94 	95
f 93 	95 	96
f 90 	98 	97
f 95 	97 	98
f 95 	98 	96
f 91 	100 	99
f 93 	99 	100
f 93 	100 	94
f 93 	96 	98
f 93 	98 	99
f 92 	99 	98
f 92 	98 	89
f 98 	90 	89
f 92 	91 	99
f 102 	103 	104
f 102 	104 	101
f 90 	97 	104
f 101 	104 	97
f 100 	102 	101
f 100 	101 	97
f 95 	94 	100
f 95 	100 	97
f 100 	91 	103
f 100 	103 	102
f 90 	104 	103
f 90 	103 	91
# 28 faces

 #end of obj_11

